<svg width="44" height="49" viewBox="0 0 44 49" fill="none" xmlns="http://www.w3.org/2000/svg">
<path d="M32.125 18.1497L11.875 6.47217" stroke="#59AE6B" stroke-width="3" stroke-linecap="round" stroke-linejoin="round"/>
<path d="M42.25 32.9998V14.9998C42.2492 14.2106 42.0409 13.4356 41.646 12.7524C41.251 12.0692 40.6834 11.5018 40 11.1073L24.25 2.10728C23.5659 1.71232 22.7899 1.50439 22 1.50439C21.2101 1.50439 20.4341 1.71232 19.75 2.10728L4 11.1073C3.31659 11.5018 2.74896 12.0692 2.35404 12.7524C1.95912 13.4356 1.75081 14.2106 1.75 14.9998V32.9998C1.75081 33.7889 1.95912 34.564 2.35404 35.2472C2.74896 35.9304 3.31659 36.4977 4 36.8923L19.75 45.8923C20.4341 46.2872 21.2101 46.4952 22 46.4952C22.7899 46.4952 23.5659 46.2872 24.25 45.8923L40 36.8923C40.6834 36.4977 41.251 35.9304 41.646 35.2472C42.0409 34.564 42.2492 33.7889 42.25 32.9998Z" stroke="#59AE6B" stroke-width="3" stroke-linecap="round" stroke-linejoin="round"/>
<path d="M2.3575 12.6597L22 24.0222L41.6425 12.6597" stroke="#59AE6B" stroke-width="3" stroke-linecap="round" stroke-linejoin="round"/>
<path d="M22 46.68V24" stroke="#59AE6B" stroke-width="3" stroke-linecap="round" stroke-linejoin="round"/>
</svg>
