<svg width="54" height="44" viewBox="0 0 54 44" fill="none" xmlns="http://www.w3.org/2000/svg">
<path d="M2.25 1.75H36V31H2.25V1.75Z" stroke="#59AE6B" stroke-width="3" stroke-linecap="round" stroke-linejoin="round"/>
<path d="M36 13H45L51.75 19.75V31H36V13Z" stroke="#59AE6B" stroke-width="3" stroke-linecap="round" stroke-linejoin="round"/>
<path d="M12.375 42.25C15.4816 42.25 18 39.7316 18 36.625C18 33.5184 15.4816 31 12.375 31C9.2684 31 6.75 33.5184 6.75 36.625C6.75 39.7316 9.2684 42.25 12.375 42.25Z" stroke="#59AE6B" stroke-width="3" stroke-linecap="round" stroke-linejoin="round"/>
<path d="M41.625 42.25C44.7316 42.25 47.25 39.7316 47.25 36.625C47.25 33.5184 44.7316 31 41.625 31C38.5184 31 36 33.5184 36 36.625C36 39.7316 38.5184 42.25 41.625 42.25Z" stroke="#59AE6B" stroke-width="3" stroke-linecap="round" stroke-linejoin="round"/>
</svg>
