<svg width="44" height="54" viewBox="0 0 44 54" fill="none" xmlns="http://www.w3.org/2000/svg">
<path d="M42.25 22.5C42.25 38.25 22 51.75 22 51.75C22 51.75 1.75 38.25 1.75 22.5C1.75 17.1294 3.88348 11.9787 7.68109 8.18109C11.4787 4.38348 16.6294 2.25 22 2.25C27.3706 2.25 32.5213 4.38348 36.3189 8.18109C40.1165 11.9787 42.25 17.1294 42.25 22.5Z" stroke="#59AE6B" stroke-width="3" stroke-linecap="round" stroke-linejoin="round"/>
<path d="M22 29.25C25.7279 29.25 28.75 26.2279 28.75 22.5C28.75 18.7721 25.7279 15.75 22 15.75C18.2721 15.75 15.25 18.7721 15.25 22.5C15.25 26.2279 18.2721 29.25 22 29.25Z" stroke="#59AE6B" stroke-width="3" stroke-linecap="round" stroke-linejoin="round"/>
</svg>
