<svg width="26" height="26" viewBox="0 0 26 26" fill="none" xmlns="http://www.w3.org/2000/svg">
<path d="M13 6.5908C9.45315 6.5908 6.59065 9.4533 6.59065 13.0002C6.59065 16.5471 9.45315 19.4095 13 19.4095C16.5469 19.4095 19.4094 16.5471 19.4094 13.0002C19.4094 9.4533 16.5469 6.5908 13 6.5908ZM13 17.1658C10.7063 17.1658 8.8344 15.2939 8.8344 13.0002C8.8344 10.7064 10.7063 8.83455 13 8.83455C15.2938 8.83455 17.1657 10.7064 17.1657 13.0002C17.1657 15.2939 15.2938 17.1658 13 17.1658ZM19.6719 4.83455C18.8438 4.83455 18.175 5.5033 18.175 6.33143C18.175 7.15955 18.8438 7.8283 19.6719 7.8283C20.5 7.8283 21.1688 7.16268 21.1688 6.33143C21.169 6.13478 21.1305 5.94003 21.0553 5.7583C20.9802 5.57658 20.8699 5.41147 20.7309 5.27242C20.5919 5.13338 20.4267 5.02313 20.245 4.94799C20.0633 4.87285 19.8685 4.8343 19.6719 4.83455ZM25.4938 13.0002C25.4938 11.2752 25.5094 9.5658 25.4125 7.84393C25.3157 5.84393 24.8594 4.06893 23.3969 2.60643C21.9313 1.1408 20.1594 0.687676 18.1594 0.590801C16.4344 0.493926 14.725 0.509551 13.0031 0.509551C11.2781 0.509551 9.56878 0.493926 7.8469 0.590801C5.8469 0.687676 4.0719 1.14393 2.6094 2.60643C1.14378 4.07205 0.690651 5.84393 0.593776 7.84393C0.496901 9.56893 0.512526 11.2783 0.512526 13.0002C0.512526 14.7221 0.496901 16.4346 0.593776 18.1564C0.690651 20.1564 1.1469 21.9314 2.6094 23.3939C4.07503 24.8596 5.8469 25.3127 7.8469 25.4095C9.5719 25.5064 11.2813 25.4908 13.0031 25.4908C14.7282 25.4908 16.4375 25.5064 18.1594 25.4095C20.1594 25.3127 21.9344 24.8564 23.3969 23.3939C24.8625 21.9283 25.3157 20.1564 25.4125 18.1564C25.5125 16.4346 25.4938 14.7252 25.4938 13.0002ZM22.7438 20.3689C22.5157 20.9377 22.2407 21.3627 21.8 21.8002C21.3594 22.2408 20.9375 22.5158 20.3688 22.7439C18.725 23.3971 14.8219 23.2502 13 23.2502C11.1782 23.2502 7.2719 23.3971 5.62815 22.7471C5.0594 22.5189 4.6344 22.2439 4.1969 21.8033C3.75628 21.3627 3.48128 20.9408 3.25315 20.3721C2.60315 18.7252 2.75003 14.8221 2.75003 13.0002C2.75003 11.1783 2.60315 7.27205 3.25315 5.6283C3.48128 5.05955 3.75628 4.63455 4.1969 4.19705C4.63753 3.75955 5.0594 3.48143 5.62815 3.2533C7.2719 2.6033 11.1782 2.75018 13 2.75018C14.8219 2.75018 18.7282 2.6033 20.3719 3.2533C20.9407 3.48143 21.3657 3.75643 21.8032 4.19705C22.2438 4.63768 22.5188 5.05955 22.7469 5.6283C23.3969 7.27205 23.25 11.1783 23.25 13.0002C23.25 14.8221 23.3969 18.7252 22.7438 20.3689Z" fill="#F5F5F5"/>
</svg>
