<svg width="26" height="26" viewBox="0 0 26 26" fill="none" xmlns="http://www.w3.org/2000/svg">
<path d="M13 6.59097C9.45315 6.59097 6.59065 9.45347 6.59065 13.0003C6.59065 16.5472 9.45315 19.4097 13 19.4097C16.5469 19.4097 19.4094 16.5472 19.4094 13.0003C19.4094 9.45347 16.5469 6.59097 13 6.59097ZM13 17.166C10.7063 17.166 8.8344 15.2941 8.8344 13.0003C8.8344 10.7066 10.7063 8.83472 13 8.83472C15.2938 8.83472 17.1657 10.7066 17.1657 13.0003C17.1657 15.2941 15.2938 17.166 13 17.166ZM19.6719 4.83472C18.8438 4.83472 18.175 5.50347 18.175 6.33159C18.175 7.15972 18.8438 7.82847 19.6719 7.82847C20.5 7.82847 21.1688 7.16284 21.1688 6.33159C21.169 6.13495 21.1305 5.94019 21.0553 5.75847C20.9802 5.57675 20.8699 5.41164 20.7309 5.27259C20.5919 5.13355 20.4267 5.0233 20.245 4.94816C20.0633 4.87302 19.8685 4.83447 19.6719 4.83472ZM25.4938 13.0003C25.4938 11.2753 25.5094 9.56597 25.4125 7.84409C25.3157 5.84409 24.8594 4.06909 23.3969 2.60659C21.9313 1.14097 20.1594 0.687844 18.1594 0.590969C16.4344 0.494094 14.725 0.509719 13.0031 0.509719C11.2781 0.509719 9.56878 0.494094 7.8469 0.590969C5.8469 0.687844 4.0719 1.14409 2.6094 2.60659C1.14378 4.07222 0.690651 5.84409 0.593776 7.84409C0.496901 9.56909 0.512526 11.2785 0.512526 13.0003C0.512526 14.7222 0.496901 16.4347 0.593776 18.1566C0.690651 20.1566 1.1469 21.9316 2.6094 23.3941C4.07503 24.8597 5.8469 25.3128 7.8469 25.4097C9.5719 25.5066 11.2813 25.491 13.0031 25.491C14.7282 25.491 16.4375 25.5066 18.1594 25.4097C20.1594 25.3128 21.9344 24.8566 23.3969 23.3941C24.8625 21.9285 25.3157 20.1566 25.4125 18.1566C25.5125 16.4347 25.4938 14.7253 25.4938 13.0003ZM22.7438 20.3691C22.5157 20.9378 22.2407 21.3628 21.8 21.8003C21.3594 22.241 20.9375 22.516 20.3688 22.7441C18.725 23.3972 14.8219 23.2503 13 23.2503C11.1782 23.2503 7.2719 23.3972 5.62815 22.7472C5.0594 22.5191 4.6344 22.2441 4.1969 21.8035C3.75628 21.3628 3.48128 20.941 3.25315 20.3722C2.60315 18.7253 2.75003 14.8222 2.75003 13.0003C2.75003 11.1785 2.60315 7.27222 3.25315 5.62847C3.48128 5.05972 3.75628 4.63472 4.1969 4.19722C4.63753 3.75972 5.0594 3.48159 5.62815 3.25347C7.2719 2.60347 11.1782 2.75034 13 2.75034C14.8219 2.75034 18.7282 2.60347 20.3719 3.25347C20.9407 3.48159 21.3657 3.75659 21.8032 4.19722C22.2438 4.63784 22.5188 5.05972 22.7469 5.62847C23.3969 7.27222 23.25 11.1785 23.25 13.0003C23.25 14.8222 23.3969 18.7253 22.7438 20.3691Z" fill="#59AE6B"/>
</svg>
