<svg width="48" height="46" viewBox="0 0 48 46" fill="none" xmlns="http://www.w3.org/2000/svg">
<path d="M31.875 13.875L39.75 6M44.25 1.5L39.75 6L44.25 1.5ZM22.6275 23.1225C23.7893 24.2688 24.7128 25.6336 25.345 27.1383C25.9771 28.643 26.3054 30.2578 26.3108 31.8899C26.3163 33.522 25.9989 35.139 25.3768 36.6479C24.7548 38.1568 23.8404 39.5278 22.6864 40.6818C21.5323 41.8359 20.1614 42.7503 18.6525 43.3723C17.1436 43.9943 15.5265 44.3118 13.8945 44.3063C12.2624 44.3008 10.6475 43.9726 9.14282 43.3404C7.63812 42.7083 6.27334 41.7848 5.12704 40.623C2.87283 38.289 1.6255 35.1631 1.6537 31.9184C1.68189 28.6737 2.98336 25.5699 5.27778 23.2755C7.57221 20.9811 10.676 19.6796 13.9207 19.6514C17.1654 19.6232 20.2913 20.8705 22.6253 23.1248L22.6275 23.1225ZM22.6275 23.1225L31.875 13.875L22.6275 23.1225ZM31.875 13.875L38.625 20.625L46.5 12.75L39.75 6L31.875 13.875Z" stroke="#59AE6B" stroke-width="3" stroke-linecap="round" stroke-linejoin="round"/>
</svg>
