<svg width="144" height="64" viewBox="0 0 144 64" fill="none" xmlns="http://www.w3.org/2000/svg">
<path d="M45.7067 0.769489C44.5679 0.973652 43.3651 1.34369 42.93 1.63717C42.7509 1.76477 42.5462 1.86686 42.495 1.86686C42.303 1.86686 40.8443 2.92594 40.2301 3.5129C39.5263 4.17643 38.5922 5.46519 38.2084 6.26907C38.0676 6.57531 37.8757 6.84328 37.7989 6.88156C37.7093 6.90708 37.0184 6.88156 36.2378 6.81776C34.7279 6.69016 33.154 6.805 31.3754 7.17504C30.3389 7.3792 29.6223 7.36644 28.3044 7.09848C26.5385 6.7412 23.813 6.65187 22.6486 6.9326C22.4183 6.98364 22.3031 6.88156 22.0088 6.39668C21.1387 4.92927 20.5629 4.20195 19.552 3.2577C18.4004 2.21138 17.5175 1.70097 15.7644 1.07573C14.8303 0.743969 14.6128 0.718449 12.8086 0.718449C10.8764 0.718449 10.838 0.718449 9.76317 1.15229C7.86938 1.9179 6.97367 2.41554 6.15474 3.18114C4.82397 4.41887 3.45481 6.69016 3.16051 8.18308C3.07093 8.60416 2.95577 9.17837 2.89179 9.45909C2.72545 10.2885 2.76383 11.8707 2.98136 12.5981C3.68514 14.9459 4.15858 15.8391 5.70688 17.7276C6.10355 18.2125 6.41065 18.6718 6.38506 18.7484C6.35947 18.825 6.21872 19.1567 6.07796 19.4757C5.36139 21.058 5.23343 21.3897 4.99031 22.2191C4.4145 24.1076 4.31213 24.5415 4.19697 25.2816C4.13299 25.7026 3.99224 26.3917 3.87707 26.8128C3.44201 28.4843 3.32685 28.9692 2.50792 32.81C2.22641 34.137 1.9449 35.5534 1.88092 35.9362C1.81694 36.319 1.67619 37.0718 1.56102 37.595C1.30511 38.8455 0.806067 41.7548 0.537354 43.554L0.319824 44.9831L1.03639 46.3356C3.26287 50.5337 6.43625 54.2214 10.3518 57.1434C12.3991 58.6874 13.3076 59.1723 18.362 61.4053C18.5795 61.5074 18.9634 61.6732 19.1937 61.7753C19.8591 62.0688 20.678 62.324 22.1368 62.6685C27.2295 63.8935 32.399 63.8935 37.5174 62.6685C42.0087 61.5839 46.2058 59.5551 49.9934 56.6203C51.5417 55.4336 54.3695 52.5626 55.5724 50.9931C57.1974 48.8494 57.9012 47.7393 59.0784 45.3786L59.6926 44.1664L59.5263 43.2094C59.4367 42.6863 59.3087 41.9079 59.232 41.4868C59.1552 41.0657 58.9888 40.1981 58.8737 39.5728C58.7585 38.9348 58.6178 38.1054 58.5666 37.7226C58.5154 37.327 58.3746 36.5487 58.2595 36C58.1315 35.4386 57.9268 34.456 57.7988 33.8308C57.6709 33.1928 57.4405 32.1337 57.2998 31.4702C57.159 30.8067 57.0183 30.1176 56.9799 29.939C56.9415 29.7603 56.788 29.0968 56.6344 28.4716C56.4937 27.8336 56.2761 26.8893 56.1738 26.3662C56.0586 25.843 55.9306 25.2943 55.8667 25.154C55.8155 25.0136 55.7003 24.5287 55.6235 24.0694C55.3804 22.6913 54.779 21.0197 53.8833 19.1695C53.6018 18.5953 53.6658 18.4166 54.2672 17.9062C54.843 17.4341 55.8155 16.1454 56.2505 15.2904C58.2339 11.3731 57.4917 6.70292 54.4207 3.74258C52.6293 2.00721 51.145 1.22885 48.7777 0.769489C47.7285 0.565331 46.9351 0.565331 45.7067 0.769489ZM49.8654 4.96755C50.3772 5.15895 50.7995 5.45243 51.4137 6.06491C52.5013 7.14952 52.8468 7.97892 52.8468 9.45909C52.834 10.8755 52.4885 11.7304 51.5161 12.7512C50.7867 13.5168 50.7483 13.5295 50.582 13.2871C50.3772 13.0191 49.8014 12.3556 48.9825 11.4879C48.7138 11.2072 48.3939 10.8117 48.2659 10.6203C48.01 10.2374 46.7816 9.40805 45.5148 8.77005C44.4272 8.22136 43.5826 7.762 43.5059 7.68544C43.3651 7.55784 44.1073 6.49876 44.7343 5.89903C46.129 4.59751 47.9844 4.26575 49.8654 4.96755ZM14.6384 5.59279C16.0075 6.09044 18.0293 8.50208 17.0952 8.50208C17.0184 8.50208 16.6601 8.70625 16.2891 8.94868C15.918 9.19113 15.291 9.53565 14.8943 9.70153C14.1649 10.0333 12.8598 10.8755 12.783 11.0796C12.7574 11.1434 12.4631 11.4879 12.1432 11.8452C10.5437 13.6189 10.1342 14.0527 10.0575 14.091C10.0191 14.1037 9.6608 13.7847 9.26413 13.3637C8.33003 12.3556 7.99734 11.4752 7.99734 10.0971C7.99734 8.71901 8.33003 7.83856 9.26413 6.84328C10.6845 5.31207 12.6422 4.85271 14.6384 5.59279ZM21.4074 19.0291C22.6614 19.8585 23.7235 20.5859 23.7618 20.6241C23.8002 20.6624 24.1969 20.9431 24.6576 21.2494L25.4893 21.7853L20.6269 21.696C17.9525 21.6577 15.7516 21.6067 15.7516 21.5939C15.7388 21.5939 16.1227 21.0325 16.609 20.3689C17.0824 19.7054 17.7734 18.7356 18.1317 18.238C18.5667 17.6255 18.8482 17.3448 18.9506 17.4086C19.0402 17.4596 20.1406 18.187 21.4074 19.0291ZM42.4054 18.7739C42.7381 19.2588 43.3267 20.0882 43.6978 20.5986C44.0817 21.1218 44.3632 21.5556 44.3376 21.5811C44.2224 21.6832 34.7151 21.7853 34.8303 21.6705C34.907 21.6067 35.9435 20.9049 37.1335 20.1137C38.3363 19.3098 39.7695 18.3528 40.3197 17.97L41.3434 17.2938L41.5737 17.5872C41.7016 17.7531 42.0727 18.2763 42.4054 18.7739ZM38.7458 22.1681C39.6159 22.4616 40.2685 23.342 40.2685 24.2225C40.2685 24.7839 39.7951 25.5878 39.2448 25.9578C38.861 26.213 38.6818 26.2513 37.9908 26.213C37.2487 26.162 37.1463 26.1237 36.6473 25.6261C36.1226 25.0902 36.1098 25.0646 36.1098 24.2097C36.1098 23.1506 36.3402 22.7551 37.1975 22.3085C37.8373 21.9895 38.1188 21.9639 38.7458 22.1681ZM22.8149 22.3978C23.6595 22.9082 24.1969 23.98 24.0178 24.7584C23.877 25.3964 23.5827 25.792 22.9941 26.1875C22.559 26.481 22.3799 26.5193 21.7401 26.4682C20.3965 26.3789 19.5904 25.4347 19.6928 24.1076C19.7567 23.342 20.0382 22.8827 20.6908 22.4361C21.2411 22.066 22.2519 22.0533 22.8149 22.3978ZM34.2416 23.9417C34.6127 24.0183 35.0094 24.0566 35.1118 24.0183C35.2525 23.9545 35.2909 24.0056 35.2525 24.1714C35.2141 24.3118 35.2269 24.5032 35.2909 24.6053C35.3805 24.7712 35.7772 27.1828 36.0075 29.0075C36.0715 29.4669 36.1866 29.6327 36.8392 30.2069C38.2596 31.4447 39.424 33.2566 40.0254 35.1706C40.2813 36 40.3197 36.3956 40.3197 38.0416C40.3197 39.6749 40.2813 40.096 40.0254 40.9126C39.5135 42.5714 38.3107 44.5237 37.0823 45.6849L36.6857 46.0677L35.1758 45.9018C34.3568 45.7997 33.0132 45.6594 32.2071 45.5828C31.401 45.5062 30.6588 45.3914 30.582 45.3404C30.3901 45.2128 30.3389 42.38 30.5309 42.2652C30.5948 42.2269 30.6844 41.9845 30.7356 41.7165C30.9403 40.6191 31.7081 39.7004 32.7445 39.3176C33.3331 39.1007 33.9985 39.1007 34.7279 39.3176C34.9582 39.3942 35.0478 39.3176 35.2653 38.8838C35.8283 37.7992 35.5084 36.4721 34.408 35.2854C33.2948 34.0732 31.9128 33.5118 30.083 33.5118C29.5584 33.5118 28.8546 33.5756 28.5219 33.6522C26.9736 34.0094 25.5789 35.0302 24.9391 36.2552C24.2737 37.5184 24.5936 39.3942 25.4381 39.2793C27.1783 39.0369 27.8565 39.1773 28.6115 39.9173C29.1489 40.4405 29.3792 40.8999 29.5328 41.7165C29.6863 42.5587 29.6735 45.149 29.5072 45.3148C29.4432 45.3786 28.7138 45.5062 27.8821 45.5828C27.0632 45.6721 25.7324 45.8125 24.9391 45.9018L23.5059 46.0677L22.7254 45.3148C21.7145 44.3068 21.0235 43.286 20.3965 41.8058C19.5264 39.7642 19.4624 36.8932 20.2558 34.5964C20.4477 33.9967 21.0491 32.8483 21.497 32.172C21.6377 31.9551 22.2519 31.266 22.8661 30.6408L23.9922 29.4924L24.1841 28.2802C24.2993 27.6166 24.4528 26.6086 24.5296 26.0472C24.6064 25.4857 24.7343 24.8094 24.7983 24.5415C24.9135 24.1076 24.9519 24.0694 25.3997 24.0694C25.6556 24.0566 26.0011 23.9928 26.1547 23.9035C26.5257 23.6993 33.2564 23.7248 34.2416 23.9417ZM32.6678 46.2718C33.717 46.4122 34.7663 46.527 34.9966 46.527C35.2141 46.527 35.4061 46.5908 35.4061 46.6546C35.4061 46.7695 33.4227 47.7648 30.8252 48.9642L30.0318 49.3343L28.3939 48.5559C27.4982 48.1221 26.2954 47.5479 25.7196 47.2799C25.131 46.9992 24.6576 46.7184 24.6576 46.6546C24.6576 46.5781 24.8751 46.527 25.1438 46.5143C25.3997 46.5143 26.3978 46.3994 27.3447 46.2718C29.6223 45.9656 30.4029 45.9656 32.6678 46.2718ZM35.8923 53.0602C35.6748 53.4047 33.5123 56.8882 31.2474 60.5631C30.6844 61.4691 30.1854 62.2219 30.1342 62.2219C30.019 62.2219 24.2609 53.0092 24.3249 52.9326C24.3632 52.9071 24.7215 52.9454 25.131 53.0219C28.3684 53.6599 31.209 53.7875 33.2308 53.3792C34.2033 53.175 35.9051 52.8305 36.0331 52.7922C36.0587 52.7795 35.9947 52.9071 35.8923 53.0602Z" fill="#F5F5F5"/>
<path d="M77.1206 7.51956C76.3017 7.762 75.4571 8.18308 74.9197 8.62969C74.0496 9.34425 74.0496 9.30597 74.0496 17.6766C74.0496 24.197 74.0752 25.2305 74.2543 25.8813C74.5358 26.8638 75.1372 27.489 76.2249 27.8974C77.0054 28.1908 77.223 28.2164 79.4878 28.2164C82.6868 28.2164 83.6721 27.9229 84.5422 26.7362L84.9261 26.2003V22.4488V18.7101H82.5589C80.7546 18.7101 80.1916 18.7484 80.1916 18.8632C80.1788 18.9526 80.1788 20.2286 80.1916 21.7087C80.1916 24.5032 80.1148 24.9753 79.6414 25.0646C79.04 25.1795 79.04 25.256 79.04 17.9318V11.0541L79.3727 10.9775C79.5902 10.9137 79.7694 10.9648 79.9101 11.1051C80.0893 11.2838 80.1276 11.6666 80.1532 13.6444L80.1788 15.9667L82.5589 16.005L84.9261 16.0305V12.0877V8.13204L83.8768 7.78752C82.8916 7.46852 82.6228 7.443 80.2556 7.40472C78.4002 7.36644 77.5429 7.40472 77.1206 7.51956Z" fill="#F5F5F5"/>
<path d="M86.2056 17.8042V28.1526L88.5473 28.127L90.8761 28.0888L90.9145 23.6483L90.9401 19.2205H91.4391C92.4116 19.2205 93.9471 18.9398 94.5101 18.6718C95.2907 18.2763 96.084 17.3448 96.4551 16.3878C96.7366 15.6477 96.7494 15.4053 96.7494 13.2233C96.7366 11.1179 96.711 10.7734 96.4423 9.98225C96.0584 8.82108 95.4954 8.24688 94.3182 7.85132C93.4865 7.5706 93.2049 7.54508 89.8268 7.5068L86.2056 7.45576V17.8042ZM91.7718 10.8117C92.0021 11.0286 92.0277 11.2583 92.0661 12.6746C92.1301 15.099 91.9893 15.6605 91.2856 15.8391L90.9401 15.9284V13.1595V10.4033L91.2344 10.4799C91.3879 10.5309 91.6311 10.6841 91.7718 10.8117Z" fill="#F5F5F5"/>
<path d="M97.9011 7.64715C97.8755 7.73647 98.0802 8.47656 98.3745 9.28044C98.6688 10.0843 98.9759 10.9648 99.0783 11.2455C99.1678 11.5262 99.3982 12.1515 99.5773 12.6491C99.7564 13.134 99.9868 13.772 100.089 14.0527C100.409 15.0097 100.678 15.7115 100.78 15.9667C100.844 16.1071 101.023 16.6047 101.19 17.0768C101.458 17.8807 101.458 17.9445 101.266 18.3656C101.138 18.608 101.049 18.8888 101.049 18.9908C101.049 19.0802 100.959 19.3226 100.857 19.514C100.755 19.7054 100.614 20.0499 100.55 20.2796C100.486 20.5093 100.281 21.0835 100.089 21.5811C99.91 22.066 99.6797 22.704 99.5901 22.9847C99.4877 23.2655 99.0655 24.4649 98.6304 25.6388C98.2082 26.8255 97.8499 27.8718 97.8499 27.9739C97.8499 28.127 98.2465 28.1526 100.319 28.1526C101.663 28.1526 102.84 28.1015 102.917 28.0505C102.994 27.9994 103.237 27.438 103.454 26.8128C103.685 26.1748 104.005 25.256 104.197 24.7712C104.376 24.2735 104.58 23.6993 104.657 23.4951C104.721 23.2782 104.862 22.9337 104.964 22.704C105.067 22.4871 105.143 22.2319 105.143 22.1298C105.156 22.0405 105.259 21.7343 105.399 21.4535C105.54 21.1728 105.655 20.8538 105.655 20.7517C105.655 20.6497 105.77 20.3307 105.911 20.0499C106.052 19.7692 106.167 19.4502 106.167 19.3481C106.167 19.246 106.244 19.0036 106.346 18.825C106.436 18.6463 106.551 18.3273 106.602 18.1232C106.653 17.919 106.769 17.5745 106.858 17.3703C107.651 15.5073 110.39 7.68543 110.287 7.58335C110.223 7.51955 109.059 7.49403 107.69 7.50679L105.207 7.54507L104.683 9.11456C104.401 9.96948 104.12 10.7096 104.081 10.7478C104.043 10.7861 103.915 10.4926 103.8 10.0843C103.493 9.01248 103.071 7.8258 102.93 7.6344C102.751 7.40471 97.9906 7.41747 97.9011 7.64715Z" fill="#F5F5F5"/>
<path d="M111.721 7.6344C111.657 7.73648 111.631 12.2535 111.669 17.9445L111.733 28.0888L114.229 28.127C118.016 28.1781 120.14 27.8336 121.062 27.0297C121.868 26.3024 122.29 24.6308 122.29 22.1936C122.29 19.6799 121.855 18.3401 120.742 17.3831C119.999 16.7451 118.899 16.4133 117.594 16.4133H116.532V13.6699V10.9265H118.707H120.882V9.28044C120.882 7.90236 120.844 7.62164 120.678 7.55784C120.562 7.51956 118.528 7.48128 116.148 7.48128C112.834 7.48128 111.797 7.51956 111.721 7.6344ZM117.223 20.0627C117.389 20.2286 117.428 20.6241 117.428 22.4105C117.428 24.4649 117.415 24.5797 117.146 24.8349C116.992 24.9753 116.762 25.0902 116.634 25.0902C116.417 25.0902 116.404 24.9115 116.404 22.4743V19.8585H116.711C116.89 19.8585 117.12 19.9478 117.223 20.0627Z" fill="#F5F5F5"/>
<path d="M123.378 7.63439C123.339 7.72371 123.326 12.3684 123.339 17.9445L123.378 28.0888L125.937 28.127C131.708 28.2164 133.41 27.4763 133.806 24.7456C133.973 23.5845 133.973 20.7645 133.793 19.782C133.422 17.651 131.785 16.4133 129.34 16.4133H128.304V12.0239C128.304 8.14479 128.278 7.62163 128.099 7.55783C127.984 7.51955 126.896 7.48127 125.668 7.48127C123.992 7.48127 123.416 7.51955 123.378 7.63439ZM128.995 20.1392C129.161 20.3689 129.2 20.8155 129.2 22.4233C129.2 24.248 129.174 24.4521 128.931 24.7584C128.79 24.937 128.56 25.0902 128.419 25.0902C128.189 25.0902 128.176 24.9753 128.176 22.4743V19.8585H128.483C128.662 19.8585 128.893 19.9861 128.995 20.1392Z" fill="#F5F5F5"/>
<path d="M134.472 7.58335C134.344 7.67267 134.318 9.81636 134.344 17.8935L134.382 28.0888H136.877H139.372L139.411 17.8935C139.436 9.81636 139.411 7.67267 139.283 7.58335C139.193 7.53231 138.106 7.48127 136.877 7.48127C135.649 7.48127 134.561 7.53231 134.472 7.58335Z" fill="#F5F5F5"/>
<path d="M84.8621 34.992C83.4162 35.3492 82.1622 36.0638 81.7399 36.7656C81.4712 37.225 81.4712 37.3015 81.4712 45.3404V53.443L81.8039 54.0555C82.2006 54.7701 82.61 55.1018 83.6081 55.4846C84.2863 55.7526 84.5678 55.7781 86.8454 55.7781C88.9951 55.7781 89.443 55.7398 90.0828 55.5229C90.9785 55.2167 91.6183 54.719 92.0021 54.0172C92.2837 53.4813 92.2837 53.4685 92.322 45.6594C92.3476 40.5426 92.3092 37.6843 92.2197 37.3526C91.9766 36.4594 91.388 35.9234 89.9164 35.311C89.2894 35.043 88.9695 35.0047 87.1653 34.9664C86.0393 34.9537 85.0029 34.9537 84.8621 34.992ZM87.1525 38.5648C87.3317 38.6286 87.3573 39.3559 87.3573 45.3914V52.1415L87.0374 52.218C86.3208 52.3967 86.3336 52.5626 86.3336 45.3914C86.3336 40.4277 86.372 38.7562 86.4872 38.6413C86.6535 38.4755 86.8454 38.4499 87.1525 38.5648Z" fill="#F5F5F5"/>
<path d="M97.1589 35.043C95.6618 35.4258 94.2415 36.4976 94.0751 37.3653C94.0368 37.595 94.0112 41.3465 94.0368 45.6977L94.0751 53.6089L94.3822 54.1448C94.7533 54.7828 95.1756 55.1146 96.1481 55.4846C96.8262 55.7526 97.095 55.7781 99.4494 55.7781C101.842 55.7781 102.06 55.7526 102.815 55.4719C103.902 55.0508 104.568 54.3873 104.76 53.5068C104.836 53.0985 104.875 51.5545 104.862 49.5895L104.824 46.3357L102.431 46.2974L100.025 46.2719V49.245C100.025 51.9756 99.9996 52.2436 99.7949 52.435C99.5134 52.6902 99.2447 52.7157 99.0271 52.4988C98.8096 52.2818 98.8096 38.8583 99.0271 38.6413C99.2447 38.4244 99.5901 38.4499 99.8205 38.6924C99.9868 38.8583 100.025 39.2793 100.025 41.2444V43.5922H102.456H104.888V39.7132C104.888 36.7656 104.849 35.8086 104.734 35.7065C104.644 35.6427 104.133 35.4513 103.608 35.2982C102.802 35.0558 102.264 35.0047 100.153 34.9664C98.784 34.9409 97.4404 34.9792 97.1589 35.043Z" fill="#F5F5F5"/>
<path d="M110.006 34.992C108.97 35.1961 107.485 35.9745 107.101 36.5359C106.564 37.3015 106.551 37.4674 106.551 45.3021C106.551 53.2133 106.577 53.5579 107.127 54.4C107.383 54.7828 108.125 55.2677 108.918 55.5484C109.456 55.7398 109.968 55.7781 112.181 55.7781H114.804L115.7 55.3315C116.327 55.0253 116.724 54.719 117.018 54.3362L117.428 53.7748V50.0233V46.2719L115.035 46.2974L112.629 46.3357L112.591 49.347C112.552 52.6264 112.527 52.7667 111.861 52.6008L111.541 52.5243V45.5701V38.6158L111.861 38.5393C112.514 38.3734 112.565 38.5648 112.565 41.1806V43.5922H114.996H117.428V39.6366V35.6938L116.378 35.3492C115.406 35.043 115.099 35.0175 112.821 34.9792C111.452 34.9537 110.185 34.9664 110.006 34.992Z" fill="#F5F5F5"/>
<path d="M69.8269 45.3787V55.7143L72.1686 55.6888L74.4974 55.6505L74.5358 51.21L74.5614 46.7823H75.3675C76.9286 46.7823 78.3874 46.2719 79.1167 45.4807C80.0764 44.4472 80.3195 43.5285 80.3195 40.9254C80.3195 37.914 79.9357 36.5615 78.8992 35.8724C77.9139 35.2217 76.6471 35.043 73.0643 35.043H69.8269V45.3787ZM75.4315 38.501C75.5467 38.7179 75.5851 39.3942 75.5595 40.8871C75.5211 42.916 75.5083 42.9798 75.214 43.2222C74.5742 43.7454 74.5614 43.6816 74.5614 40.734V38.0033L74.9197 38.0927C75.1116 38.1437 75.3419 38.3223 75.4315 38.501Z" fill="#F5F5F5"/>
<path d="M119.398 35.2344C119.372 35.2982 119.36 39.9301 119.372 45.5063L119.411 55.6505L121.957 55.6888C123.403 55.7016 124.568 55.6633 124.632 55.5995C124.696 55.5357 124.824 55.1529 124.913 54.7318C125.016 54.3235 125.207 53.4685 125.361 52.8433C125.937 50.4699 126.142 49.6278 126.397 48.5687C127.05 45.8253 126.986 45.6339 127.037 50.8655L127.088 55.6505H128.688H130.287L130.326 45.4042C130.351 37.2633 130.326 35.1706 130.198 35.1706C129.52 35.1451 124.913 35.1834 124.888 35.2089C124.875 35.2344 124.76 35.6427 124.657 36.1404C124.389 37.2888 124.043 38.7817 123.698 40.1726C123.557 40.7978 123.326 41.7676 123.186 42.3418C122.533 45.0979 122.571 45.2638 122.559 39.9812C122.546 37.3398 122.508 35.1706 122.456 35.1706C120.998 35.0941 119.436 35.1323 119.398 35.2344Z" fill="#F5F5F5"/>
<path d="M132.386 35.2216C132.258 35.362 132.219 55.1656 132.347 55.5101C132.411 55.6888 132.77 55.7143 134.958 55.7143C137.645 55.7143 137.671 55.7143 137.811 55.0763C137.85 54.8977 138.003 54.2341 138.157 53.6089C138.31 52.9709 138.541 52.0011 138.669 51.4397C138.797 50.8782 139.027 49.934 139.168 49.3343C139.321 48.7345 139.526 47.8031 139.641 47.2544C139.756 46.7184 139.897 46.2718 139.935 46.2718C139.974 46.2718 140.012 48.3773 140.012 50.9548V55.6505H141.612H143.211L143.25 45.4042C143.262 38.603 143.237 35.1706 143.147 35.1706C143.083 35.1706 141.88 35.1578 140.498 35.1578H137.965L137.811 35.5151C137.735 35.7065 137.543 36.4211 137.389 37.0846C136.928 39.1262 136.365 41.4613 136.25 41.8696C136.186 42.0738 136.02 42.7373 135.892 43.337L135.662 44.4216L135.598 39.828L135.534 35.2344L134.024 35.1706C133.141 35.1323 132.463 35.1578 132.386 35.2216Z" fill="#F5F5F5"/>
</svg>
