<svg width="144" height="64" viewBox="0 0 144 64" fill="none" xmlns="http://www.w3.org/2000/svg">
<path d="M45.7067 0.76965C44.5679 0.973812 43.3651 1.34385 42.93 1.63733C42.7509 1.76493 42.5462 1.86702 42.495 1.86702C42.303 1.86702 40.8443 2.9261 40.2301 3.51306C39.5263 4.17659 38.5922 5.46535 38.2084 6.26923C38.0676 6.57547 37.8757 6.84344 37.7989 6.88172C37.7093 6.90724 37.0184 6.88172 36.2378 6.81792C34.7279 6.69032 33.154 6.80516 31.3754 7.1752C30.3389 7.37936 29.6223 7.3666 28.3044 7.09864C26.5385 6.74136 23.813 6.65203 22.6486 6.93276C22.4183 6.9838 22.3031 6.88172 22.0088 6.39684C21.1387 4.92943 20.5629 4.20211 19.552 3.25786C18.4004 2.21154 17.5175 1.70113 15.7644 1.07589C14.8303 0.744129 14.6128 0.718609 12.8086 0.718609C10.8764 0.718609 10.838 0.718609 9.76317 1.15245C7.86938 1.91806 6.97367 2.4157 6.15474 3.1813C4.82397 4.41903 3.45481 6.69032 3.16051 8.18324C3.07093 8.60432 2.95577 9.17853 2.89179 9.45925C2.72545 10.2887 2.76383 11.8709 2.98136 12.5982C3.68514 14.9461 4.15858 15.8393 5.70688 17.7278C6.10355 18.2126 6.41065 18.672 6.38506 18.7486C6.35947 18.8251 6.21872 19.1569 6.07796 19.4759C5.36139 21.0581 5.23343 21.3899 4.99031 22.2193C4.4145 24.1078 4.31213 24.5416 4.19697 25.2817C4.13299 25.7028 3.99224 26.3918 3.87707 26.8129C3.44201 28.4845 3.32685 28.9694 2.50792 32.8101C2.22641 34.1372 1.9449 35.5536 1.88092 35.9364C1.81694 36.3192 1.67619 37.072 1.56102 37.5952C1.30511 38.8457 0.806067 41.7549 0.537354 43.5541L0.319824 44.9832L1.03639 46.3358C3.26287 50.5339 6.43625 54.2215 10.3518 57.1436C12.3991 58.6875 13.3076 59.1724 18.362 61.4054C18.5795 61.5075 18.9634 61.6734 19.1937 61.7755C19.8591 62.069 20.678 62.3242 22.1368 62.6687C27.2295 63.8936 32.399 63.8936 37.5174 62.6687C42.0087 61.5841 46.2058 59.5552 49.9934 56.6204C51.5417 55.4337 54.3695 52.5627 55.5724 50.9932C57.1974 48.8495 57.9012 47.7394 59.0784 45.3788L59.6926 44.1666L59.5263 43.2096C59.4367 42.6864 59.3087 41.9081 59.232 41.487C59.1552 41.0659 58.9888 40.1982 58.8737 39.573C58.7585 38.935 58.6178 38.1056 58.5666 37.7228C58.5154 37.3272 58.3746 36.5488 58.2595 36.0002C58.1315 35.4387 57.9268 34.4562 57.7988 33.831C57.6709 33.193 57.4405 32.1339 57.2998 31.4703C57.159 30.8068 57.0183 30.1178 56.9799 29.9391C56.9415 29.7605 56.788 29.097 56.6344 28.4717C56.4937 27.8337 56.2761 26.8895 56.1738 26.3663C56.0586 25.8432 55.9306 25.2945 55.8667 25.1541C55.8155 25.0138 55.7003 24.5289 55.6235 24.0695C55.3804 22.6914 54.779 21.0199 53.8833 19.1697C53.6018 18.5954 53.6658 18.4168 54.2672 17.9064C54.843 17.4343 55.8155 16.1455 56.2505 15.2906C58.2339 11.3733 57.4917 6.70308 54.4207 3.74274C52.6293 2.00737 51.145 1.22901 48.7777 0.76965C47.7285 0.565491 46.9351 0.565491 45.7067 0.76965ZM49.8654 4.96771C50.3772 5.15911 50.7995 5.45259 51.4137 6.06507C52.5013 7.14968 52.8468 7.97908 52.8468 9.45925C52.834 10.8756 52.4885 11.7305 51.5161 12.7513C50.7867 13.5169 50.7483 13.5297 50.582 13.2873C50.3772 13.0193 49.8014 12.3558 48.9825 11.4881C48.7138 11.2074 48.3939 10.8118 48.2659 10.6204C48.01 10.2376 46.7816 9.40821 45.5148 8.77021C44.4272 8.22152 43.5826 7.76216 43.5059 7.6856C43.3651 7.558 44.1073 6.49892 44.7343 5.89919C46.129 4.59767 47.9844 4.26591 49.8654 4.96771ZM14.6384 5.59295C16.0075 6.0906 18.0293 8.50224 17.0952 8.50224C17.0184 8.50224 16.6601 8.70641 16.2891 8.94884C15.918 9.19129 15.291 9.53581 14.8943 9.70169C14.1649 10.0335 12.8598 10.8756 12.783 11.0798C12.7574 11.1436 12.4631 11.4881 12.1432 11.8454C10.5437 13.619 10.1342 14.0529 10.0575 14.0911C10.0191 14.1039 9.6608 13.7849 9.26413 13.3638C8.33003 12.3558 7.99734 11.4753 7.99734 10.0973C7.99734 8.71917 8.33003 7.83872 9.26413 6.84344C10.6845 5.31223 12.6422 4.85287 14.6384 5.59295ZM21.4074 19.0293C22.6614 19.8587 23.7235 20.586 23.7618 20.6243C23.8002 20.6626 24.1969 20.9433 24.6576 21.2495L25.4893 21.7855L20.6269 21.6961C17.9525 21.6579 15.7516 21.6068 15.7516 21.5941C15.7388 21.5941 16.1227 21.0326 16.609 20.3691C17.0824 19.7056 17.7734 18.7358 18.1317 18.2382C18.5667 17.6257 18.8482 17.345 18.9506 17.4088C19.0402 17.4598 20.1406 18.1871 21.4074 19.0293ZM42.4054 18.7741C42.7381 19.259 43.3267 20.0884 43.6978 20.5988C44.0817 21.1219 44.3632 21.5558 44.3376 21.5813C44.2224 21.6834 34.7151 21.7855 34.8303 21.6706C34.907 21.6068 35.9435 20.905 37.1335 20.1139C38.3363 19.31 39.7695 18.353 40.3197 17.9702L41.3434 17.2939L41.5737 17.5874C41.7016 17.7533 42.0727 18.2764 42.4054 18.7741ZM38.7458 22.1683C39.6159 22.4617 40.2685 23.3422 40.2685 24.2226C40.2685 24.7841 39.7951 25.588 39.2448 25.958C38.861 26.2132 38.6818 26.2515 37.9908 26.2132C37.2487 26.1622 37.1463 26.1239 36.6473 25.6262C36.1226 25.0903 36.1098 25.0648 36.1098 24.2099C36.1098 23.1508 36.3402 22.7552 37.1975 22.3086C37.8373 21.9896 38.1188 21.9641 38.7458 22.1683ZM22.8149 22.3979C23.6595 22.9083 24.1969 23.9802 24.0178 24.7586C23.877 25.3966 23.5827 25.7921 22.9941 26.1877C22.559 26.4812 22.3799 26.5194 21.7401 26.4684C20.3965 26.3791 19.5904 25.4348 19.6928 24.1078C19.7567 23.3422 20.0382 22.8828 20.6908 22.4362C21.2411 22.0662 22.2519 22.0534 22.8149 22.3979ZM34.2416 23.9419C34.6127 24.0185 35.0094 24.0568 35.1118 24.0185C35.2525 23.9547 35.2909 24.0057 35.2525 24.1716C35.2141 24.312 35.2269 24.5034 35.2909 24.6054C35.3805 24.7713 35.7772 27.183 36.0075 29.0077C36.0715 29.467 36.1866 29.6329 36.8392 30.2071C38.2596 31.4448 39.424 33.2568 40.0254 35.1708C40.2813 36.0002 40.3197 36.3957 40.3197 38.0418C40.3197 39.6751 40.2813 40.0961 40.0254 40.9128C39.5135 42.5716 38.3107 44.5239 37.0823 45.685L36.6857 46.0678L35.1758 45.902C34.3568 45.7999 33.0132 45.6595 32.2071 45.583C31.401 45.5064 30.6588 45.3916 30.582 45.3405C30.3901 45.2129 30.3389 42.3802 30.5309 42.2654C30.5948 42.2271 30.6844 41.9846 30.7356 41.7167C30.9403 40.6193 31.7081 39.7006 32.7445 39.3178C33.3331 39.1009 33.9985 39.1009 34.7279 39.3178C34.9582 39.3943 35.0478 39.3178 35.2653 38.8839C35.8283 37.7993 35.5084 36.4723 34.408 35.2856C33.2948 34.0734 31.9128 33.512 30.083 33.512C29.5584 33.512 28.8546 33.5758 28.5219 33.6523C26.9736 34.0096 25.5789 35.0304 24.9391 36.2554C24.2737 37.5186 24.5936 39.3943 25.4381 39.2795C27.1783 39.0371 27.8565 39.1774 28.6115 39.9175C29.1489 40.4407 29.3792 40.9 29.5328 41.7167C29.6863 42.5588 29.6735 45.1491 29.5072 45.315C29.4432 45.3788 28.7138 45.5064 27.8821 45.583C27.0632 45.6723 25.7324 45.8126 24.9391 45.902L23.5059 46.0678L22.7254 45.315C21.7145 44.307 21.0235 43.2862 20.3965 41.806C19.5264 39.7644 19.4624 36.8934 20.2558 34.5966C20.4477 33.9968 21.0491 32.8484 21.497 32.1721C21.6377 31.9552 22.2519 31.2662 22.8661 30.6409L23.9922 29.4925L24.1841 28.2803C24.2993 27.6168 24.4528 26.6088 24.5296 26.0473C24.6064 25.4859 24.7343 24.8096 24.7983 24.5416C24.9135 24.1078 24.9519 24.0695 25.3997 24.0695C25.6556 24.0568 26.0011 23.993 26.1547 23.9036C26.5257 23.6995 33.2564 23.725 34.2416 23.9419ZM32.6678 46.272C33.717 46.4124 34.7663 46.5272 34.9966 46.5272C35.2141 46.5272 35.4061 46.591 35.4061 46.6548C35.4061 46.7696 33.4227 47.7649 30.8252 48.9644L30.0318 49.3344L28.3939 48.5561C27.4982 48.1222 26.2954 47.548 25.7196 47.2801C25.131 46.9993 24.6576 46.7186 24.6576 46.6548C24.6576 46.5782 24.8751 46.5272 25.1438 46.5144C25.3997 46.5144 26.3978 46.3996 27.3447 46.272C29.6223 45.9658 30.4029 45.9658 32.6678 46.272ZM35.8923 53.0604C35.6748 53.4049 33.5123 56.8884 31.2474 60.5633C30.6844 61.4692 30.1854 62.2221 30.1342 62.2221C30.019 62.2221 24.2609 53.0093 24.3249 52.9328C24.3632 52.9072 24.7215 52.9455 25.131 53.0221C28.3684 53.6601 31.209 53.7877 33.2308 53.3794C34.2033 53.1752 35.9051 52.8307 36.0331 52.7924C36.0587 52.7796 35.9947 52.9072 35.8923 53.0604Z" fill="#59AE6B"/>
<path d="M77.1206 7.5195C76.3017 7.76194 75.4571 8.18302 74.9197 8.62963C74.0496 9.34419 74.0496 9.30591 74.0496 17.6765C74.0496 24.1969 74.0752 25.2305 74.2543 25.8812C74.5358 26.8637 75.1372 27.489 76.2249 27.8973C77.0054 28.1908 77.223 28.2163 79.4878 28.2163C82.6868 28.2163 83.6721 27.9228 84.5422 26.7361L84.9261 26.2002V22.4488V18.7101H82.5589C80.7546 18.7101 80.1916 18.7483 80.1916 18.8632C80.1788 18.9525 80.1788 20.2285 80.1916 21.7087C80.1916 24.5031 80.1148 24.9753 79.6414 25.0646C79.04 25.1794 79.04 25.256 79.04 17.9317V11.054L79.3727 10.9775C79.5902 10.9137 79.7694 10.9647 79.9101 11.1051C80.0893 11.2837 80.1276 11.6665 80.1532 13.6443L80.1788 15.9667L82.5589 16.0049L84.9261 16.0305V12.0876V8.13198L83.8768 7.78746C82.8916 7.46846 82.6228 7.44294 80.2556 7.40466C78.4002 7.36638 77.5429 7.40466 77.1206 7.5195Z" fill="#59AE6B"/>
<path d="M86.2056 17.8044V28.1528L88.5473 28.1273L90.8761 28.089L90.9145 23.6485L90.9401 19.2208H91.4391C92.4116 19.2208 93.9471 18.9401 94.5101 18.6721C95.2907 18.2766 96.084 17.3451 96.4551 16.3881C96.7366 15.648 96.7494 15.4055 96.7494 13.2236C96.7366 11.1182 96.711 10.7736 96.4423 9.98252C96.0584 8.82135 95.4954 8.24715 94.3182 7.85159C93.4865 7.57086 93.2049 7.54534 89.8268 7.50706L86.2056 7.45602V17.8044ZM91.7718 10.8119C92.0021 11.0288 92.0277 11.2585 92.0661 12.6749C92.1301 15.0993 91.9893 15.6607 91.2856 15.8394L90.9401 15.9287V13.1598V10.4036L91.2344 10.4802C91.3879 10.5312 91.6311 10.6843 91.7718 10.8119Z" fill="#59AE6B"/>
<path d="M97.9011 7.64742C97.8755 7.73674 98.0802 8.47683 98.3745 9.28071C98.6688 10.0846 98.9759 10.965 99.0783 11.2458C99.1678 11.5265 99.3982 12.1517 99.5773 12.6494C99.7564 13.1342 99.9868 13.7722 100.089 14.053C100.409 15.01 100.678 15.7118 100.78 15.967C100.844 16.1073 101.023 16.605 101.19 17.0771C101.458 17.881 101.458 17.9448 101.266 18.3659C101.138 18.6083 101.049 18.889 101.049 18.9911C101.049 19.0804 100.959 19.3229 100.857 19.5143C100.755 19.7057 100.614 20.0502 100.55 20.2799C100.486 20.5096 100.281 21.0838 100.089 21.5814C99.91 22.0663 99.6797 22.7043 99.5901 22.985C99.4877 23.2657 99.0655 24.4652 98.6304 25.6391C98.2082 26.8258 97.8499 27.8721 97.8499 27.9742C97.8499 28.1273 98.2465 28.1528 100.319 28.1528C101.663 28.1528 102.84 28.1018 102.917 28.0508C102.994 27.9997 103.237 27.4383 103.454 26.813C103.685 26.175 104.005 25.2563 104.197 24.7714C104.376 24.2738 104.58 23.6996 104.657 23.4954C104.721 23.2785 104.862 22.934 104.964 22.7043C105.067 22.4874 105.143 22.2322 105.143 22.1301C105.156 22.0408 105.259 21.7345 105.399 21.4538C105.54 21.1731 105.655 20.8541 105.655 20.752C105.655 20.6499 105.77 20.3309 105.911 20.0502C106.052 19.7695 106.167 19.4505 106.167 19.3484C106.167 19.2463 106.244 19.0039 106.346 18.8252C106.436 18.6466 106.551 18.3276 106.602 18.1234C106.653 17.9193 106.769 17.5747 106.858 17.3706C107.651 15.5076 110.39 7.6857 110.287 7.58362C110.223 7.51982 109.059 7.4943 107.69 7.50706L105.207 7.54534L104.683 9.11483C104.401 9.96975 104.12 10.7098 104.081 10.7481C104.043 10.7864 103.915 10.4929 103.8 10.0846C103.493 9.01275 103.071 7.82606 102.93 7.63466C102.751 7.40498 97.9906 7.41774 97.9011 7.64742Z" fill="#59AE6B"/>
<path d="M111.721 7.63475C111.657 7.73684 111.631 12.2539 111.669 17.9449L111.733 28.0891L114.229 28.1274C118.016 28.1784 120.14 27.8339 121.062 27.03C121.868 26.3027 122.29 24.6311 122.29 22.194C122.29 19.6802 121.855 18.3404 120.742 17.3834C119.999 16.7454 118.899 16.4137 117.594 16.4137H116.532V13.6703V10.9268H118.707H120.882V9.2808C120.882 7.90272 120.844 7.62199 120.678 7.5582C120.562 7.51991 118.528 7.48163 116.148 7.48163C112.834 7.48163 111.797 7.51991 111.721 7.63475ZM117.223 20.063C117.389 20.2289 117.428 20.6245 117.428 22.4109C117.428 24.4653 117.415 24.5801 117.146 24.8353C116.992 24.9757 116.762 25.0905 116.634 25.0905C116.417 25.0905 116.404 24.9119 116.404 22.4747V19.8589H116.711C116.89 19.8589 117.12 19.9482 117.223 20.063Z" fill="#59AE6B"/>
<path d="M123.378 7.63458C123.339 7.7239 123.326 12.3686 123.339 17.9447L123.378 28.089L125.937 28.1272C131.708 28.2166 133.41 27.4765 133.806 24.7458C133.973 23.5847 133.973 20.7647 133.793 19.7822C133.422 17.6512 131.785 16.4135 129.34 16.4135H128.304V12.024C128.304 8.14499 128.278 7.62182 128.099 7.55802C127.984 7.51974 126.896 7.48146 125.668 7.48146C123.992 7.48146 123.416 7.51974 123.378 7.63458ZM128.995 20.1394C129.161 20.3691 129.2 20.8157 129.2 22.4235C129.2 24.2482 129.174 24.4523 128.931 24.7586C128.79 24.9372 128.56 25.0903 128.419 25.0903C128.189 25.0903 128.176 24.9755 128.176 22.4745V19.8587H128.483C128.662 19.8587 128.893 19.9863 128.995 20.1394Z" fill="#59AE6B"/>
<path d="M134.472 7.58346C134.344 7.67278 134.318 9.81647 134.344 17.8936L134.382 28.0889H136.877H139.372L139.411 17.8936C139.436 9.81647 139.411 7.67278 139.283 7.58346C139.193 7.53242 138.106 7.48138 136.877 7.48138C135.649 7.48138 134.561 7.53242 134.472 7.58346Z" fill="#59AE6B"/>
<path d="M84.8621 34.9922C83.4162 35.3495 82.1622 36.064 81.7399 36.7658C81.4712 37.2252 81.4712 37.3017 81.4712 45.3406V53.4432L81.8039 54.0557C82.2006 54.7703 82.61 55.102 83.6081 55.4848C84.2863 55.7528 84.5678 55.7783 86.8454 55.7783C88.9951 55.7783 89.443 55.74 90.0828 55.5231C90.9785 55.2169 91.6183 54.7192 92.0021 54.0174C92.2837 53.4815 92.2837 53.4687 92.322 45.6596C92.3476 40.5428 92.3092 37.6845 92.2197 37.3528C91.9766 36.4596 91.388 35.9237 89.9164 35.3112C89.2894 35.0432 88.9695 35.0049 87.1653 34.9667C86.0393 34.9539 85.0029 34.9539 84.8621 34.9922ZM87.1525 38.565C87.3317 38.6288 87.3573 39.3561 87.3573 45.3916V52.1417L87.0374 52.2183C86.3208 52.3969 86.3336 52.5628 86.3336 45.3916C86.3336 40.428 86.372 38.7564 86.4872 38.6416C86.6535 38.4757 86.8454 38.4502 87.1525 38.565Z" fill="#59AE6B"/>
<path d="M97.1589 35.0432C95.6618 35.426 94.2415 36.4979 94.0751 37.3655C94.0368 37.5952 94.0112 41.3467 94.0368 45.6979L94.0751 53.6091L94.3822 54.145C94.7533 54.783 95.1756 55.1148 96.1481 55.4848C96.8262 55.7528 97.095 55.7783 99.4494 55.7783C101.842 55.7783 102.06 55.7528 102.815 55.4721C103.902 55.051 104.568 54.3875 104.76 53.507C104.836 53.0987 104.875 51.5547 104.862 49.5897L104.824 46.3359L102.431 46.2976L100.025 46.2721V49.2452C100.025 51.9758 99.9996 52.2438 99.7949 52.4352C99.5134 52.6904 99.2447 52.7159 99.0271 52.499C98.8096 52.2821 98.8096 38.8585 99.0271 38.6416C99.2447 38.4246 99.5901 38.4502 99.8205 38.6926C99.9868 38.8585 100.025 39.2796 100.025 41.2446V43.5925H102.456H104.888V39.7134C104.888 36.7658 104.849 35.8088 104.734 35.7067C104.644 35.6429 104.133 35.4515 103.608 35.2984C102.802 35.056 102.264 35.0049 100.153 34.9667C98.784 34.9411 97.4404 34.9794 97.1589 35.0432Z" fill="#59AE6B"/>
<path d="M110.006 34.9922C108.97 35.1963 107.485 35.9747 107.101 36.5361C106.564 37.3017 106.551 37.4676 106.551 45.3023C106.551 53.2135 106.577 53.5581 107.127 54.4002C107.383 54.783 108.125 55.2679 108.918 55.5486C109.456 55.74 109.968 55.7783 112.181 55.7783H114.804L115.7 55.3317C116.327 55.0255 116.724 54.7192 117.018 54.3364L117.428 53.775V50.0235V46.2721L115.035 46.2976L112.629 46.3359L112.591 49.3472C112.552 52.6266 112.527 52.7669 111.861 52.6011L111.541 52.5245V45.5703V38.616L111.861 38.5395C112.514 38.3736 112.565 38.565 112.565 41.1808V43.5925H114.996H117.428V39.6368V35.694L116.378 35.3495C115.406 35.0432 115.099 35.0177 112.821 34.9794C111.452 34.9539 110.185 34.9667 110.006 34.9922Z" fill="#59AE6B"/>
<path d="M69.8269 45.3787V55.7144L72.1686 55.6888L74.4974 55.6506L74.5358 51.2101L74.5614 46.7823H75.3675C76.9286 46.7823 78.3874 46.2719 79.1167 45.4808C80.0764 44.4472 80.3195 43.5285 80.3195 40.9255C80.3195 37.9141 79.9357 36.5615 78.8992 35.8725C77.9139 35.2217 76.6471 35.0431 73.0643 35.0431H69.8269V45.3787ZM75.4315 38.501C75.5467 38.718 75.5851 39.3942 75.5595 40.8872C75.5211 42.916 75.5083 42.9798 75.214 43.2223C74.5742 43.7454 74.5614 43.6816 74.5614 40.7341V38.0034L74.9197 38.0927C75.1116 38.1438 75.3419 38.3224 75.4315 38.501Z" fill="#59AE6B"/>
<path d="M119.398 35.2346C119.372 35.2984 119.36 39.9303 119.372 45.5064L119.411 55.6507L121.957 55.689C123.403 55.7017 124.568 55.6634 124.632 55.5996C124.696 55.5358 124.824 55.153 124.913 54.732C125.016 54.3236 125.207 53.4687 125.361 52.8435C125.937 50.4701 126.142 49.6279 126.397 48.5688C127.05 45.8254 126.986 45.634 127.037 50.8657L127.088 55.6507H128.688H130.287L130.326 45.4043C130.351 37.2634 130.326 35.1708 130.198 35.1708C129.52 35.1453 124.913 35.1835 124.888 35.2091C124.875 35.2346 124.76 35.6429 124.657 36.1405C124.389 37.2889 124.043 38.7819 123.698 40.1727C123.557 40.798 123.326 41.7677 123.186 42.3419C122.533 45.0981 122.571 45.264 122.559 39.9813C122.546 37.34 122.508 35.1708 122.456 35.1708C120.998 35.0942 119.436 35.1325 119.398 35.2346Z" fill="#59AE6B"/>
<path d="M132.386 35.2217C132.258 35.362 132.219 55.1657 132.347 55.5102C132.411 55.6888 132.77 55.7144 134.958 55.7144C137.645 55.7144 137.671 55.7144 137.811 55.0764C137.85 54.8977 138.003 54.2342 138.157 53.6089C138.31 52.9709 138.541 52.0012 138.669 51.4397C138.797 50.8783 139.027 49.934 139.168 49.3343C139.321 48.7346 139.526 47.8031 139.641 47.2544C139.756 46.7185 139.897 46.2719 139.935 46.2719C139.974 46.2719 140.012 48.3773 140.012 50.9548V55.6506H141.612H143.211L143.25 45.4042C143.262 38.6031 143.237 35.1706 143.147 35.1706C143.083 35.1706 141.88 35.1579 140.498 35.1579H137.965L137.811 35.5152C137.735 35.7066 137.543 36.4211 137.389 37.0846C136.928 39.1263 136.365 41.4614 136.25 41.8697C136.186 42.0738 136.02 42.7374 135.892 43.3371L135.662 44.4217L135.598 39.8281L135.534 35.2344L134.024 35.1706C133.141 35.1324 132.463 35.1579 132.386 35.2217Z" fill="#59AE6B"/>
</svg>
