<svg width="23" height="24" viewBox="0 0 23 24" fill="none" xmlns="http://www.w3.org/2000/svg">
<path d="M10.791 0.0034927C8.86481 0.0267456 4.72355 0.343285 2.40726 2.4683C0.684302 4.17551 0.082728 6.69957 0.0122193 9.8207C-0.0462879 12.9306 -0.116797 18.7708 5.51265 20.361V22.7831C5.51265 22.7831 5.47739 23.7522 6.11797 23.9509C6.90707 24.2007 7.35638 23.4551 8.10647 22.654L9.50539 21.0721C13.3571 21.3924 16.3072 20.6543 16.647 20.5448C17.4286 20.295 21.8309 19.7324 22.5502 13.8915C23.2883 7.85921 22.191 4.05849 20.21 2.33928H20.198C19.6001 1.78871 17.1976 0.037997 11.8299 0.0184946C11.8299 0.0184946 11.4316 -0.00850878 10.791 0.00274261V0.0034927ZM10.8571 1.69945C11.4039 1.6957 11.7362 1.71895 11.7362 1.71895C16.2795 1.73096 18.448 3.09837 18.9596 3.55893C20.6278 4.98861 21.4874 8.41503 20.858 13.4512C20.2602 18.3343 16.6898 18.6433 16.0289 18.8541C15.7477 18.9441 13.1493 19.5847 9.87594 19.3739C9.87594 19.3739 7.43814 22.3157 6.67604 23.0733C6.55528 23.2061 6.41426 23.2451 6.32425 23.2256C6.19523 23.1941 6.15623 23.0343 6.16373 22.8153L6.18698 18.7956C1.41264 17.4754 1.69393 12.494 1.74493 9.89196C1.80344 7.28989 2.29175 5.16113 3.74543 3.71945C5.70242 1.94998 9.21885 1.71145 10.8556 1.69945H10.8571ZM11.2171 4.30077C11.1778 4.30038 11.1388 4.30776 11.1024 4.3225C11.066 4.33724 11.0328 4.35905 11.0049 4.38666C10.9769 4.41427 10.9547 4.44715 10.9395 4.48338C10.9243 4.51962 10.9164 4.55851 10.9163 4.59781C10.9163 4.76583 11.0528 4.8986 11.2171 4.8986C11.9608 4.88445 12.7 5.01769 13.392 5.29061C14.0839 5.56354 14.715 5.97076 15.2488 6.48879C16.3387 7.54717 16.8698 8.96935 16.8901 10.8288C16.8901 10.9931 17.0228 11.1296 17.1908 11.1296V11.1176C17.27 11.1178 17.3461 11.0867 17.4024 11.0311C17.4588 10.9754 17.4908 10.8998 17.4916 10.8206C17.528 9.94533 17.3861 9.07182 17.0744 8.25313C16.7628 7.43445 16.2879 6.68769 15.6787 6.05824C14.4913 4.89785 12.9866 4.30002 11.2171 4.30002V4.30077ZM7.26336 4.98861C7.05105 4.95759 6.83451 5.0002 6.64979 5.10937H6.63404C6.20518 5.36076 5.81885 5.67848 5.48939 6.05074C5.21561 6.36728 5.06709 6.68757 5.02809 6.99585C5.00483 7.17963 5.02059 7.3634 5.07534 7.53892L5.09485 7.55092C5.40313 8.45704 5.80593 9.32864 6.29799 10.1492C6.93184 11.3021 7.71188 12.3683 8.61878 13.3214L8.64578 13.3604L8.68854 13.3919L8.71554 13.4234L8.74705 13.4504C9.70359 14.36 10.7724 15.1436 11.9274 15.7824C13.2476 16.501 14.0487 16.8408 14.5295 16.9818V16.9893C14.6705 17.0321 14.7988 17.0516 14.9278 17.0516C15.3376 17.0216 15.7255 16.8552 16.0297 16.579C16.4003 16.2495 16.7144 15.8616 16.9598 15.4306V15.4231C17.1901 14.9896 17.1121 14.5793 16.7798 14.3018C16.1143 13.7201 15.3947 13.2034 14.6308 12.7588C14.1192 12.4813 13.5994 12.6493 13.3886 12.9306L12.9393 13.4969C12.709 13.7782 12.2905 13.7392 12.2905 13.7392L12.2785 13.7467C9.15735 12.9493 8.32474 9.7892 8.32474 9.7892C8.32474 9.7892 8.28574 9.3594 8.57453 9.14037L9.13709 8.68731C9.40638 8.46829 9.5939 7.94922 9.30512 7.43691C8.86361 6.67193 8.34808 5.95214 7.76593 5.28789C7.63866 5.1313 7.46011 5.02475 7.26186 4.98711L7.26336 4.98861ZM11.7362 5.87972C11.3379 5.87972 11.3379 6.48129 11.7399 6.48129C12.2352 6.48933 12.724 6.59488 13.1785 6.79193C13.6329 6.98898 14.0441 7.27365 14.3885 7.62968C14.7027 7.97623 14.9441 8.38231 15.0984 8.82386C15.2528 9.26541 15.3169 9.73345 15.2871 10.2003C15.2885 10.2792 15.3207 10.3546 15.3769 10.4101C15.4332 10.4656 15.5089 10.4969 15.5879 10.4973L15.5999 10.513C15.6795 10.5125 15.7556 10.4806 15.8119 10.4243C15.8682 10.368 15.9001 10.2918 15.9007 10.2123C15.9277 9.02036 15.5571 8.02048 14.8303 7.21938C14.0997 6.41828 13.0803 5.96898 11.7789 5.87972H11.7362ZM12.229 7.49692C11.8187 7.48492 11.8029 8.09849 12.2095 8.11049C13.1981 8.1615 13.6782 8.66106 13.7412 9.68869C13.7425 9.76669 13.7744 9.84106 13.8299 9.89587C13.8854 9.95069 13.9602 9.98159 14.0382 9.98197H14.0502C14.0903 9.98025 14.1297 9.97056 14.166 9.95346C14.2023 9.93637 14.2349 9.9122 14.2618 9.88239C14.2886 9.85257 14.3093 9.8177 14.3226 9.77981C14.3358 9.74191 14.3414 9.70176 14.339 9.66168C14.2685 8.32202 13.5379 7.56743 12.241 7.49767H12.229V7.49692Z" fill="#59AE6B"/>
</svg>
